<?xml version="1.0" standalone="no"?>
<!DOCTYPE svg PUBLIC "-//W3C//DTD SVG 20010904//EN"
 "http://www.w3.org/TR/2001/REC-SVG-20010904/DTD/svg10.dtd">
<svg version="1.0" xmlns="http://www.w3.org/2000/svg"
 width="1024.000000pt" height="1024.000000pt" viewBox="0 0 1024.000000 1024.000000"
 preserveAspectRatio="xMidYMid meet">
<metadata>
Created by potrace 1.11, written by Peter Selinger 2001-2013
</metadata>
<g transform="translate(0.000000,1024.000000) scale(0.100000,-0.100000)"
fill="#000000" stroke="none">
<path d="M4996 9613 c-1 -1 -46 -4 -101 -7 -55 -3 -131 -8 -170 -12 -38 -3
-86 -8 -105 -9 -19 -1 -35 -3 -35 -4 0 -1 -18 -4 -40 -6 -83 -9 -144 -18 -265
-42 -19 -4 -49 -7 -67 -8 -17 0 -29 -3 -26 -7 2 -5 -4 -8 -14 -9 -25 -1 -46
-5 -85 -18 -18 -6 -46 -13 -63 -16 -16 -3 -34 -7 -40 -9 -5 -1 -28 -6 -50 -11
-22 -4 -55 -14 -72 -22 -18 -7 -33 -10 -33 -7 0 4 -7 1 -15 -6 -8 -7 -15 -9
-15 -5 0 4 -6 2 -13 -4 -8 -6 -16 -9 -19 -6 -3 3 -18 -1 -34 -10 -16 -8 -34
-15 -40 -15 -6 0 -33 -9 -60 -19 -170 -66 -244 -93 -250 -91 -4 1 -10 -2 -13
-7 -3 -5 -31 -19 -61 -32 -30 -13 -100 -45 -155 -71 -55 -26 -104 -48 -109
-48 -5 0 -12 -4 -15 -9 -7 -11 -191 -113 -203 -113 -4 0 -8 -4 -8 -8 0 -4 -22
-19 -50 -33 -27 -13 -50 -27 -50 -31 0 -5 -6 -8 -14 -8 -8 0 -16 -3 -18 -8 -1
-4 -43 -34 -93 -67 -49 -33 -99 -68 -109 -77 -11 -10 -38 -30 -60 -45 -23 -16
-47 -34 -54 -41 -8 -7 -18 -9 -24 -6 -6 4 -8 2 -5 -3 4 -6 -4 -18 -17 -26 -13
-9 -29 -22 -37 -29 -8 -7 -41 -35 -74 -63 -84 -70 -129 -111 -197 -178 -34
-35 -63 -55 -69 -51 -7 4 -9 3 -6 -4 4 -5 -29 -47 -72 -91 -44 -45 -78 -81
-76 -81 2 0 -19 -23 -46 -51 -27 -28 -49 -53 -49 -56 0 -3 -11 -16 -26 -29
-14 -13 -22 -24 -18 -24 4 0 -3 -8 -14 -19 -12 -10 -22 -23 -22 -30 0 -6 -4
-11 -8 -11 -5 0 -30 -29 -56 -65 -26 -36 -54 -72 -62 -80 -8 -7 -14 -18 -14
-24 0 -5 -10 -17 -22 -26 -13 -8 -22 -18 -20 -20 7 -14 0 -26 -12 -22 -10 4
-13 1 -10 -7 3 -7 -2 -21 -11 -30 -9 -9 -13 -16 -8 -16 4 0 0 -5 -9 -11 -10
-5 -18 -14 -18 -20 0 -5 -25 -47 -55 -93 -30 -46 -55 -88 -55 -94 0 -6 -4 -12
-8 -14 -5 -1 -16 -16 -24 -33 -8 -16 -19 -29 -26 -28 -6 2 -9 -4 -6 -12 4 -9
2 -21 -4 -28 -6 -6 -23 -38 -40 -69 -16 -32 -32 -54 -36 -50 -4 3 -4 -2 0 -12
6 -15 4 -17 -6 -11 -8 5 -11 4 -7 -2 7 -12 -20 -74 -37 -85 -6 -4 -7 -8 -3 -8
5 0 -1 -17 -12 -37 -25 -48 -71 -148 -71 -156 0 -4 -11 -31 -25 -61 -14 -30
-25 -57 -25 -61 0 -3 -7 -22 -16 -43 -10 -20 -18 -41 -18 -47 -2 -13 -25 -85
-36 -110 -13 -29 -41 -116 -46 -141 -2 -12 -10 -40 -19 -63 -8 -23 -14 -44
-14 -46 1 -13 -14 -71 -21 -80 -4 -5 -7 -17 -7 -25 -1 -13 -7 -47 -18 -90 -2
-8 -4 -23 -4 -33 -1 -10 -4 -16 -8 -14 -5 3 -9 -20 -11 -51 -1 -31 -6 -58 -10
-61 -4 -3 -7 -22 -7 -41 0 -19 -3 -42 -7 -51 -8 -19 -16 -78 -33 -239 -3 -30
-11 -58 -18 -62 -7 -5 -8 -8 -1 -8 6 0 10 -18 10 -40 -1 -22 -4 -40 -7 -40 -3
0 -5 -20 -4 -45 2 -25 -1 -42 -6 -39 -5 3 -6 -3 -2 -13 4 -10 6 -33 5 -53 -3
-49 -2 -348 1 -387 2 -18 -1 -33 -6 -33 -4 0 -5 -5 -1 -12 4 -7 8 -28 9 -48 1
-20 4 -41 9 -48 4 -7 2 -12 -4 -12 -6 0 -8 -5 -3 -12 4 -7 8 -26 10 -43 1 -16
5 -57 8 -90 4 -33 7 -83 8 -112 1 -28 5 -49 9 -47 4 3 7 -4 7 -13 0 -10 3 -36
7 -58 4 -22 7 -59 8 -82 0 -23 4 -36 8 -30 5 7 8 -2 9 -20 2 -42 3 -45 13 -62
7 -11 6 -12 -5 -6 -11 7 -12 6 -3 -6 10 -11 29 -86 38 -144 1 -5 5 -16 9 -22
5 -7 5 -17 2 -23 -3 -5 -1 -10 6 -10 7 0 10 -3 7 -6 -3 -3 -2 -21 4 -41 7 -27
7 -38 -4 -45 -10 -8 -9 -9 4 -5 13 5 19 -4 27 -41 5 -25 7 -51 4 -56 -3 -5 -2
-6 4 -3 5 4 24 -41 44 -103 18 -61 38 -110 42 -110 5 0 3 -8 -4 -17 -8 -9 -9
-14 -4 -11 10 6 50 -81 57 -122 2 -8 6 -17 9 -20 14 -10 58 -133 52 -143 -3
-5 -1 -7 5 -3 10 6 28 -30 24 -46 -1 -5 3 -8 9 -8 5 0 7 -4 4 -10 -3 -5 -3
-10 2 -10 4 0 13 -11 20 -25 6 -14 7 -23 2 -19 -5 3 -9 0 -9 -5 0 -6 7 -11 16
-11 8 0 12 -5 9 -10 -3 -6 -1 -10 6 -10 6 0 9 -8 6 -20 -3 -11 0 -18 6 -17 6
1 13 -7 15 -18 2 -11 7 -22 11 -25 15 -12 52 -92 48 -104 -3 -8 1 -13 11 -12
9 0 18 -7 20 -18 3 -13 0 -16 -9 -11 -8 5 -10 4 -5 -3 4 -7 14 -12 22 -12 8 0
12 -4 9 -10 -3 -5 -1 -10 4 -10 6 0 11 -7 11 -16 0 -9 -5 -12 -12 -8 -7 4 -8
3 -4 -4 4 -6 13 -9 21 -5 13 5 20 -13 16 -39 0 -5 6 -8 15 -8 10 0 14 -6 10
-15 -3 -9 0 -15 8 -15 8 0 17 -11 20 -25 4 -14 10 -25 15 -25 5 0 14 -13 21
-30 7 -16 17 -30 22 -30 6 0 6 -6 -1 -14 -9 -11 -9 -16 0 -22 8 -4 9 -3 5 4
-4 7 -4 12 1 12 14 -1 45 -51 39 -65 -3 -9 0 -12 10 -8 8 3 14 -1 14 -10 0 -8
7 -17 15 -21 8 -3 12 -12 9 -20 -3 -8 0 -17 7 -22 8 -4 10 -3 5 4 -4 7 -5 12
-3 12 10 0 67 -91 62 -100 -4 -6 1 -7 11 -3 14 5 16 3 11 -11 -4 -9 -3 -15 2
-11 6 3 18 -8 27 -25 10 -16 22 -30 26 -30 4 0 8 -5 8 -11 0 -5 -5 -7 -12 -3
-7 4 -8 3 -4 -4 4 -6 13 -9 21 -5 15 5 21 -12 8 -20 -5 -2 -3 -3 3 -1 6 1 18
-6 27 -16 11 -14 12 -21 4 -30 -9 -8 -8 -10 4 -5 18 7 83 -60 74 -75 -4 -6 2
-7 12 -3 10 3 15 2 11 -2 -5 -5 1 -15 12 -22 11 -8 18 -19 15 -24 -4 -5 -1 -9
5 -9 15 0 40 -25 40 -41 0 -7 3 -9 6 -6 10 10 45 -34 37 -46 -3 -6 -1 -7 5 -3
7 4 12 2 12 -4 0 -6 5 -8 10 -5 6 3 10 2 10 -4 0 -5 -6 -12 -12 -15 -7 -3 -2
-3 11 0 19 5 23 3 18 -9 -6 -16 15 -42 25 -31 3 3 35 -23 71 -58 36 -35 82
-78 102 -95 20 -18 34 -37 31 -42 -4 -5 -1 -13 5 -17 8 -4 9 -3 5 4 -10 16 5
15 26 -2 10 -7 15 -16 11 -19 -3 -4 1 -7 10 -7 10 0 17 -4 17 -10 0 -5 7 -10
15 -10 9 0 20 -10 25 -22 5 -13 9 -19 9 -14 1 5 8 3 16 -4 8 -7 13 -16 10 -20
-3 -4 1 -7 8 -6 6 0 13 -3 13 -9 1 -5 -2 -9 -8 -7 -5 1 -7 -2 -3 -8 5 -8 11
-8 20 0 13 11 27 3 70 -37 7 -7 16 -9 20 -5 5 4 5 -1 2 -10 -4 -11 -2 -15 6
-12 7 2 23 -6 37 -19 14 -13 34 -26 45 -31 16 -6 17 -9 5 -17 -11 -8 -10 -9 8
-4 12 3 22 2 22 -3 0 -5 14 -15 30 -22 17 -7 30 -19 30 -27 0 -8 4 -12 9 -9
13 9 76 -39 73 -55 -3 -11 -1 -11 9 -2 9 9 17 8 35 -4 13 -8 21 -20 17 -26 -3
-6 -1 -7 5 -3 6 4 35 -8 64 -26 29 -18 78 -46 108 -62 30 -16 58 -34 61 -39 3
-5 8 -8 10 -6 13 7 48 -15 53 -34 4 -16 8 -19 17 -10 9 9 16 8 28 -6 9 -9 12
-11 7 -4 -6 10 -4 12 8 7 9 -3 16 -10 16 -15 0 -5 6 -8 13 -7 6 2 11 -3 9 -10
-1 -8 2 -11 8 -7 14 9 52 -4 45 -16 -3 -5 1 -6 9 -3 11 4 16 0 16 -10 0 -9 5
-16 11 -16 5 0 7 5 4 10 -3 6 -1 10 4 10 6 0 11 -5 11 -12 0 -6 3 -8 7 -5 3 4
15 0 25 -10 10 -9 18 -13 18 -10 0 3 13 1 30 -4 16 -6 27 -15 24 -20 -3 -5 1
-6 9 -3 8 3 21 -2 30 -10 8 -8 17 -13 19 -11 9 10 103 -34 100 -47 -3 -10 0
-10 8 -2 13 13 112 -17 144 -45 11 -9 16 -10 12 -4 -7 12 12 9 39 -6 6 -3 19
-7 30 -8 11 -2 21 -8 23 -13 2 -5 10 -6 18 -3 8 3 14 1 14 -4 0 -5 10 -9 23
-9 15 1 21 -4 19 -14 -3 -11 0 -12 8 -4 6 6 22 9 36 6 19 -3 23 -9 19 -26 -5
-19 -5 -19 5 -3 11 17 35 17 80 0 20 -8 40 -12 68 -15 19 -2 26 -9 24 -28 0
-3 8 -6 19 -6 19 0 19 1 3 13 -16 11 -16 13 -2 13 9 0 24 -7 32 -16 10 -9 16
-11 16 -4 0 12 43 3 48 -9 1 -4 17 -6 35 -5 17 1 36 -1 42 -6 5 -4 18 -6 28
-5 10 2 17 -3 17 -13 0 -13 2 -14 9 -4 5 8 19 11 37 8 16 -2 29 -5 29 -6 0 -1
18 -3 40 -6 73 -7 96 -12 111 -25 12 -10 15 -10 12 2 -2 8 3 12 12 10 8 -2 32
-6 53 -9 30 -3 35 -7 27 -17 -8 -9 -8 -15 0 -20 6 -4 9 -1 8 7 -2 7 3 12 10
10 8 -1 11 2 7 8 -3 5 0 10 9 10 8 0 17 -6 19 -12 4 -9 6 -9 6 1 1 11 5 10 16
-5 13 -16 14 -16 9 -1 -5 15 -3 16 20 7 14 -5 26 -6 26 -2 0 4 5 0 10 -8 5 -8
10 -10 10 -4 0 17 64 11 72 -6 5 -12 7 -11 7 3 1 10 6 15 11 12 20 -12 534 -5
546 8 4 4 14 1 22 -6 9 -6 13 -7 9 -1 -8 14 24 14 42 0 11 -8 13 -8 7 2 -5 9
3 12 31 13 47 2 98 6 98 9 0 1 18 4 40 6 21 3 41 7 44 9 2 3 11 -1 19 -8 13
-9 14 -9 8 1 -4 7 -1 12 8 12 9 0 16 -5 16 -11 0 -6 7 -3 16 6 13 12 19 13 24
5 6 -9 9 -9 12 1 2 7 20 13 39 15 19 1 36 3 39 5 14 6 36 4 42 -6 5 -6 8 -2 8
9 0 11 3 17 6 13 3 -3 16 -2 29 3 13 5 27 5 34 -1 6 -5 8 -6 5 -2 -6 8 68 31
121 38 17 2 60 13 97 24 49 14 68 16 72 8 2 -7 5 -3 5 8 1 16 3 17 10 5 6 -8
7 -18 4 -24 -3 -5 -1 -6 5 -2 6 4 9 12 6 19 -5 13 53 40 67 31 5 -3 9 0 9 7 0
7 3 9 6 6 4 -3 16 -2 27 4 15 9 18 8 11 -3 -4 -7 2 -5 14 6 11 10 32 19 46 20
14 0 26 4 26 9 0 4 3 6 8 5 4 -1 24 6 46 15 21 9 42 14 47 11 5 -3 9 0 9 5 0
6 3 10 8 9 4 -1 17 3 29 10 12 6 30 13 40 15 10 2 28 9 41 16 13 7 33 14 45
17 12 2 23 8 25 14 2 5 11 10 19 10 12 0 13 -3 4 -13 -8 -10 -7 -14 4 -14 8 0
12 4 9 8 -7 12 39 50 53 45 7 -3 13 -1 13 5 0 6 5 7 10 4 6 -3 10 -1 10 4 0 6
7 11 15 11 8 0 15 6 15 13 0 9 2 9 9 -1 7 -11 9 -11 14 2 4 9 15 16 26 16 11
0 21 3 23 8 4 9 101 57 111 54 4 -1 7 3 7 9 0 5 4 8 9 5 5 -4 11 -3 13 2 1 4
21 19 42 32 22 13 37 19 33 14 -3 -6 0 -11 7 -11 9 0 12 7 8 15 -4 12 -1 14
13 8 11 -4 16 -4 12 0 -8 8 75 64 93 64 5 0 10 5 10 11 0 5 5 7 10 4 6 -3 10
-2 10 4 0 5 8 12 19 16 10 3 29 14 41 25 12 11 27 17 31 14 5 -3 9 -1 9 5 0 9
112 91 124 91 4 0 15 8 25 17 38 35 49 42 55 36 3 -4 6 -2 6 4 0 6 17 23 37
39 20 15 32 21 28 14 -5 -8 16 9 45 38 30 29 61 50 67 47 7 -2 12 -1 11 3 -4
13 53 63 64 56 6 -4 8 -3 5 3 -4 5 10 24 30 42 37 33 57 35 32 4 -13 -16 -12
-17 4 -4 9 7 16 19 15 25 -4 16 110 128 123 121 5 -4 9 -3 8 2 -4 21 2 33 17
33 8 0 13 4 9 9 -3 5 4 12 15 16 11 4 17 11 14 17 -5 7 -1 9 9 5 9 -3 16 -3
15 1 -2 11 13 42 22 42 4 0 6 -12 4 -26 -1 -14 0 -23 4 -20 3 4 6 19 7 35 1
16 8 35 16 43 8 8 31 34 52 57 21 24 42 39 49 35 7 -4 8 -3 4 4 -8 14 73 120
93 121 8 1 11 4 8 8 -4 3 5 17 19 30 14 12 22 23 19 23 -4 0 0 7 7 15 7 8 22
26 33 41 11 14 25 31 32 39 7 7 9 15 6 19 -6 5 12 10 29 7 4 0 5 5 3 12 -3 6
13 36 35 65 22 28 37 52 34 52 -5 0 2 10 36 49 8 10 16 24 18 32 2 7 7 16 11
19 4 3 16 20 26 38 11 17 23 32 28 32 4 0 5 5 1 12 -5 7 -2 9 9 5 11 -4 14 -2
11 7 -4 11 29 81 46 96 3 3 14 24 25 47 11 22 23 39 27 37 5 -3 8 2 8 11 0 17
49 117 63 126 5 3 9 9 9 12 0 19 12 47 19 47 5 0 8 3 7 8 -1 4 7 27 19 52 11
25 23 54 27 65 6 16 9 17 17 5 8 -11 9 -9 4 8 -4 15 1 35 14 58 12 20 19 40
15 45 -3 5 1 11 8 14 7 3 14 17 15 32 0 15 6 29 12 31 6 2 11 11 11 20 0 25
56 163 63 156 3 -3 3 4 0 16 -5 19 -3 21 16 15 12 -4 21 -2 21 4 0 6 -5 10
-11 9 -6 -2 -13 5 -14 15 -2 9 1 17 6 17 6 0 7 5 4 10 -3 6 -2 10 3 10 6 0 9
6 9 13 -1 6 3 29 7 50 7 30 12 37 25 32 13 -5 14 -4 4 6 -15 15 -18 33 -4 25
4 -3 7 6 5 19 -1 14 4 32 13 40 8 8 10 15 4 15 -6 0 -8 7 -5 15 4 8 9 13 13
11 3 -2 7 10 7 27 1 18 4 41 7 52 3 11 6 26 6 33 1 7 4 11 9 9 4 -3 6 12 6 34
-1 21 2 39 7 39 4 0 6 7 3 15 -4 8 -2 15 4 15 6 0 8 10 4 22 -3 12 -1 19 5 15
5 -4 8 6 5 25 -4 24 -2 29 9 23 12 -7 12 -6 1 7 -9 12 -10 22 -4 35 10 19 12
24 12 46 0 8 4 7 10 -3 6 -9 10 -10 10 -3 0 6 -4 15 -10 18 -12 7 -13 45 -2
45 5 0 9 8 9 18 -1 62 4 83 16 76 9 -6 9 -4 1 7 -6 8 -10 23 -7 34 2 11 4 36
5 55 1 19 9 41 18 48 8 8 9 10 2 7 -20 -10 -12 56 8 73 8 7 11 12 5 11 -22 -3
-25 2 -14 22 9 17 8 20 -2 14 -7 -5 -10 -4 -5 3 5 9 9 46 16 165 0 5 6 5 13 1
9 -6 9 -5 0 7 -7 9 -12 66 -13 164 -1 210 -6 310 -14 323 -4 7 -2 12 4 12 6 0
8 5 3 13 -14 22 -14 58 -1 75 10 12 10 14 1 8 -9 -5 -13 -1 -14 11 -1 10 -2
29 -3 43 -1 14 -5 31 -9 38 -5 7 -3 12 3 12 6 0 8 4 5 10 -7 12 -11 31 -20
100 -7 54 -10 75 -20 120 -6 28 -16 104 -19 137 0 11 -4 19 -8 16 -5 -2 -8 5
-8 16 0 12 -11 65 -25 118 -14 53 -23 103 -21 109 3 7 1 14 -4 16 -5 2 -11 14
-14 28 -2 14 -5 26 -7 28 -1 1 -3 7 -4 12 -1 6 -3 11 -5 13 -1 1 -3 9 -5 17
-2 8 -16 53 -30 100 -15 47 -28 93 -28 102 -1 9 -5 14 -9 12 -4 -3 -8 1 -8 10
0 20 -69 198 -121 310 -12 27 -22 55 -22 63 0 7 -3 13 -7 13 -12 0 -43 78 -35
89 3 7 1 10 -6 9 -7 -2 -17 11 -23 27 -6 17 -17 36 -23 43 -7 7 -16 24 -19 38
-3 13 -10 24 -15 24 -5 0 -9 6 -9 13 0 7 -13 34 -30 60 -16 26 -26 47 -22 47
4 0 2 4 -4 8 -6 4 -20 23 -30 42 -11 19 -36 61 -57 93 -20 31 -37 60 -37 63 0
2 -9 14 -20 26 -11 12 -20 31 -20 42 0 10 -3 16 -6 13 -4 -4 -31 28 -60 71
-29 42 -60 84 -68 93 -9 9 -16 19 -16 22 0 4 -8 15 -17 25 -10 10 -27 30 -38
46 -11 15 -29 38 -40 50 -59 67 -75 86 -75 91 0 2 -15 19 -32 38 -94 96 -178
190 -178 198 0 5 -5 9 -10 9 -6 0 -39 28 -73 63 -69 68 -191 177 -213 190 -8
5 -12 13 -8 18 3 5 2 8 -3 7 -11 -4 -54 27 -48 35 3 4 2 5 -1 2 -11 -7 -74 47
-67 58 3 5 1 7 -4 4 -13 -8 -89 51 -85 65 1 5 -2 7 -8 3 -5 -3 -15 -1 -22 5
-7 6 -41 31 -75 54 -34 24 -59 46 -55 50 4 4 2 7 -3 5 -14 -3 -47 12 -69 33
-11 10 -25 18 -32 18 -7 0 -17 6 -21 13 -4 7 -19 18 -33 25 -62 32 -80 44 -80
53 0 6 -5 7 -11 3 -6 -3 -14 -2 -18 3 -8 12 -85 56 -195 111 -50 25 -92 49
-94 54 -2 4 -10 8 -17 8 -20 0 -85 32 -80 40 2 3 -4 6 -13 7 -32 3 -52 9 -64
21 -7 7 -19 12 -28 12 -9 0 -20 4 -26 9 -5 5 -61 28 -124 51 -63 23 -119 46
-125 51 -5 5 -21 9 -35 9 -14 0 -30 4 -35 8 -8 7 -38 18 -105 37 -3 1 -18 5
-35 9 -16 4 -39 11 -50 16 -21 9 -59 18 -112 27 -18 3 -31 8 -29 12 2 3 -10 7
-27 8 -18 2 -61 10 -97 19 -35 9 -80 18 -99 20 -18 3 -37 6 -41 9 -3 2 -29 7
-56 10 -49 6 -85 13 -114 20 -8 2 -32 4 -53 4 -21 1 -36 4 -34 9 3 4 -36 8
-86 10 -50 2 -97 7 -106 12 -8 4 -25 4 -37 0 -12 -5 -25 -6 -28 -3 -6 6 -127
12 -335 16 -57 1 -104 1 -105 0z"/>
<path d="M636 4442 c-3 -5 1 -9 9 -9 8 0 12 4 9 9 -3 4 -7 8 -9 8 -2 0 -6 -4
-9 -8z"/>
<path d="M755 3840 c3 -5 8 -10 11 -10 2 0 4 5 4 10 0 6 -5 10 -11 10 -5 0 -7
-4 -4 -10z"/>
<path d="M853 3625 c0 -8 4 -12 9 -9 5 3 6 10 3 15 -9 13 -12 11 -12 -6z"/>
<path d="M1013 3231 c0 -11 5 -18 9 -15 4 3 5 11 1 19 -7 21 -12 19 -10 -4z"/>
<path d="M9215 3240 c-3 -5 -1 -10 4 -10 6 0 11 5 11 10 0 6 -2 10 -4 10 -3 0
-8 -4 -11 -10z"/>
<path d="M9156 3113 c-6 -14 -5 -15 5 -6 7 7 10 15 7 18 -3 3 -9 -2 -12 -12z"/>
<path d="M1230 2759 c0 -5 5 -7 10 -4 6 3 10 8 10 11 0 2 -4 4 -10 4 -5 0 -10
-5 -10 -11z"/>
<path d="M1335 2660 c-3 -5 -1 -10 4 -10 6 0 11 5 11 10 0 6 -2 10 -4 10 -3 0
-8 -4 -11 -10z"/>
<path d="M8890 2659 c0 -5 5 -7 10 -4 6 3 10 8 10 11 0 2 -4 4 -10 4 -5 0 -10
-5 -10 -11z"/>
<path d="M1390 2576 c0 -2 8 -10 18 -17 15 -13 16 -12 3 4 -13 16 -21 21 -21
13z"/>
<path d="M8815 2540 c-3 -5 -1 -10 4 -10 6 0 11 5 11 10 0 6 -2 10 -4 10 -3 0
-8 -4 -11 -10z"/>
<path d="M1440 2480 c-9 -6 -10 -10 -3 -10 6 0 15 5 18 10 8 12 4 12 -15 0z"/>
<path d="M1495 2420 c3 -5 8 -10 11 -10 2 0 4 5 4 10 0 6 -5 10 -11 10 -5 0
-7 -4 -4 -10z"/>
<path d="M1513 2385 c0 -8 4 -12 9 -9 5 3 6 10 3 15 -9 13 -12 11 -12 -6z"/>
<path d="M1536 2333 c-6 -14 -5 -15 5 -6 7 7 10 15 7 18 -3 3 -9 -2 -12 -12z"/>
<path d="M8580 2239 c0 -5 5 -7 10 -4 6 3 10 8 10 11 0 2 -4 4 -10 4 -5 0 -10
-5 -10 -11z"/>
<path d="M8555 2201 c-3 -5 -2 -12 3 -15 5 -3 9 1 9 9 0 17 -3 19 -12 6z"/>
<path d="M1690 2180 c0 -5 5 -10 11 -10 5 0 7 5 4 10 -3 6 -8 10 -11 10 -2 0
-4 -4 -4 -10z"/>
<path d="M8534 2142 c4 -3 14 -7 22 -8 9 -1 13 0 10 4 -4 3 -14 7 -22 8 -9 1
-13 0 -10 -4z"/>
<path d="M1853 1991 c0 -11 5 -18 9 -15 4 3 5 11 1 19 -7 21 -12 19 -10 -4z"/>
<path d="M8335 1951 c-3 -5 -2 -12 3 -15 5 -3 9 1 9 9 0 17 -3 19 -12 6z"/>
<path d="M8293 1905 c0 -8 4 -12 9 -9 5 3 6 10 3 15 -9 13 -12 11 -12 -6z"/>
<path d="M1940 1880 c-8 -5 -10 -10 -5 -10 6 0 17 5 25 10 8 5 11 10 5 10 -5
0 -17 -5 -25 -10z"/>
<path d="M8215 1831 c-3 -5 -2 -12 3 -15 5 -3 9 1 9 9 0 17 -3 19 -12 6z"/>
<path d="M2093 1745 c0 -8 4 -12 9 -9 5 3 6 10 3 15 -9 13 -12 11 -12 -6z"/>
<path d="M2127 1739 c7 -7 15 -10 18 -7 3 3 -2 9 -12 12 -14 6 -15 5 -6 -5z"/>
<path d="M8126 1722 c-3 -5 1 -9 9 -9 8 0 12 4 9 9 -3 4 -7 8 -9 8 -2 0 -6 -4
-9 -8z"/>
<path d="M2114 1702 c4 -3 14 -7 22 -8 9 -1 13 0 10 4 -4 3 -14 7 -22 8 -9 1
-13 0 -10 -4z"/>
<path d="M2166 1658 c3 -5 10 -6 15 -3 13 9 11 12 -6 12 -8 0 -12 -4 -9 -9z"/>
<path d="M8030 1659 c0 -5 5 -7 10 -4 6 3 10 8 10 11 0 2 -4 4 -10 4 -5 0 -10
-5 -10 -11z"/>
<path d="M2213 1625 c0 -8 4 -12 9 -9 5 3 6 10 3 15 -9 13 -12 11 -12 -6z"/>
<path d="M2253 1585 c0 -8 4 -12 9 -9 5 3 6 10 3 15 -9 13 -12 11 -12 -6z"/>
<path d="M7953 1515 c0 -8 4 -12 9 -9 5 3 6 10 3 15 -9 13 -12 11 -12 -6z"/>
<path d="M7813 1505 c0 -8 4 -12 9 -9 5 3 6 10 3 15 -9 13 -12 11 -12 -6z"/>
<path d="M2376 1498 c3 -5 10 -6 15 -3 13 9 11 12 -6 12 -8 0 -12 -4 -9 -9z"/>
<path d="M2415 1480 c3 -5 8 -10 11 -10 2 0 4 5 4 10 0 6 -5 10 -11 10 -5 0
-7 -4 -4 -10z"/>
<path d="M7880 1480 c-9 -6 -10 -10 -3 -10 6 0 15 5 18 10 8 12 4 12 -15 0z"/>
<path d="M7800 1460 c-12 -7 -10 -9 7 -7 12 0 19 5 17 9 -6 10 -6 10 -24 -2z"/>
<path d="M2495 1420 c3 -5 8 -10 11 -10 2 0 4 5 4 10 0 6 -5 10 -11 10 -5 0
-7 -4 -4 -10z"/>
<path d="M7656 1401 c-4 -5 3 -7 14 -4 23 6 26 13 6 13 -8 0 -17 -4 -20 -9z"/>
<path d="M2515 1379 c-3 -4 2 -6 10 -5 21 3 28 13 10 13 -9 0 -18 -4 -20 -8z"/>
<path d="M7695 1380 c-3 -5 -1 -10 4 -10 6 0 11 5 11 10 0 6 -2 10 -4 10 -3 0
-8 -4 -11 -10z"/>
<path d="M2650 1300 c0 -5 5 -10 11 -10 5 0 7 5 4 10 -3 6 -8 10 -11 10 -2 0
-4 -4 -4 -10z"/>
<path d="M7519 1308 c-5 -18 -6 -38 -1 -34 7 8 12 36 6 36 -2 0 -4 -1 -5 -2z"/>
<path d="M7595 1300 c3 -5 8 -10 11 -10 2 0 4 5 4 10 0 6 -5 10 -11 10 -5 0
-7 -4 -4 -10z"/>
<path d="M7555 1260 c-3 -5 -1 -10 4 -10 6 0 11 5 11 10 0 6 -2 10 -4 10 -3 0
-8 -4 -11 -10z"/>
<path d="M2799 1233 c-13 -16 -12 -17 4 -4 9 7 17 15 17 17 0 8 -8 3 -21 -13z"/>
<path d="M2733 1215 c0 -8 4 -12 9 -9 5 3 6 10 3 15 -9 13 -12 11 -12 -6z"/>
<path d="M7413 1185 c0 -8 4 -12 9 -9 5 3 6 10 3 15 -9 13 -12 11 -12 -6z"/>
<path d="M2855 1180 c-3 -5 -1 -10 4 -10 6 0 11 5 11 10 0 6 -2 10 -4 10 -3 0
-8 -4 -11 -10z"/>
<path d="M2935 1140 c3 -5 8 -10 11 -10 2 0 4 5 4 10 0 6 -5 10 -11 10 -5 0
-7 -4 -4 -10z"/>
<path d="M2835 1121 c-3 -5 -2 -12 3 -15 5 -3 9 1 9 9 0 17 -3 19 -12 6z"/>
<path d="M3030 1126 c0 -2 7 -7 16 -10 8 -3 12 -2 9 4 -6 10 -25 14 -25 6z"/>
<path d="M7199 1113 c-13 -16 -12 -17 4 -4 16 13 21 21 13 21 -2 0 -10 -8 -17
-17z"/>
<path d="M2915 1099 c-3 -4 2 -6 10 -5 21 3 28 13 10 13 -9 0 -18 -4 -20 -8z"/>
<path d="M2976 1102 c-3 -5 1 -9 9 -9 8 0 12 4 9 9 -3 4 -7 8 -9 8 -2 0 -6 -4
-9 -8z"/>
<path d="M3015 1100 c3 -5 8 -10 11 -10 2 0 4 5 4 10 0 6 -5 10 -11 10 -5 0
-7 -4 -4 -10z"/>
<path d="M7140 1086 c0 -2 8 -10 18 -17 15 -13 16 -12 3 4 -13 16 -21 21 -21
13z"/>
<path d="M3015 1061 c-3 -5 -2 -12 3 -15 5 -3 9 1 9 9 0 17 -3 19 -12 6z"/>
<path d="M7075 1061 c-3 -5 -2 -12 3 -15 5 -3 9 1 9 9 0 17 -3 19 -12 6z"/>
<path d="M3186 1042 c-3 -5 1 -9 9 -9 8 0 12 4 9 9 -3 4 -7 8 -9 8 -2 0 -6 -4
-9 -8z"/>
<path d="M7050 1019 c0 -5 5 -7 10 -4 6 3 10 8 10 11 0 2 -4 4 -10 4 -5 0 -10
-5 -10 -11z"/>
<path d="M7086 1022 c-3 -5 1 -9 9 -9 8 0 12 4 9 9 -3 4 -7 8 -9 8 -2 0 -6 -4
-9 -8z"/>
<path d="M3210 980 c0 -5 5 -10 11 -10 5 0 7 5 4 10 -3 6 -8 10 -11 10 -2 0
-4 -4 -4 -10z"/>
<path d="M3250 979 c0 -5 5 -7 10 -4 6 3 10 8 10 11 0 2 -4 4 -10 4 -5 0 -10
-5 -10 -11z"/>
<path d="M7054 976 c1 -8 5 -18 8 -22 4 -3 5 1 4 10 -1 8 -5 18 -8 22 -4 3 -5
-1 -4 -10z"/>
<path d="M3354 960 c0 -13 4 -16 10 -10 7 7 7 13 0 20 -6 6 -10 3 -10 -10z"/>
<path d="M6895 940 c-3 -5 -1 -10 4 -10 6 0 11 5 11 10 0 6 -2 10 -4 10 -3 0
-8 -4 -11 -10z"/>
<path d="M6835 920 c-3 -5 -1 -10 4 -10 6 0 11 5 11 10 0 6 -2 10 -4 10 -3 0
-8 -4 -11 -10z"/>
<path d="M6733 905 c0 -8 4 -12 9 -9 5 3 6 10 3 15 -9 13 -12 11 -12 -6z"/>
<path d="M3326 902 c-3 -5 1 -9 9 -9 8 0 12 4 9 9 -3 4 -7 8 -9 8 -2 0 -6 -4
-9 -8z"/>
<path d="M3570 879 c0 -5 5 -7 10 -4 6 3 10 8 10 11 0 2 -4 4 -10 4 -5 0 -10
-5 -10 -11z"/>
<path d="M6735 871 c-3 -5 -2 -12 3 -15 5 -3 9 1 9 9 0 17 -3 19 -12 6z"/>
<path d="M3456 862 c-2 -4 -1 -14 4 -22 7 -11 9 -9 7 8 -1 24 -3 26 -11 14z"/>
<path d="M3560 840 c-9 -6 -10 -10 -3 -10 6 0 15 5 18 10 8 12 4 12 -15 0z"/>
<path d="M6537 835 c-4 -8 -3 -16 1 -19 4 -3 9 4 9 15 2 23 -3 25 -10 4z"/>
<path d="M3693 791 c0 -11 5 -18 9 -15 4 3 5 11 1 19 -7 21 -12 19 -10 -4z"/>
<path d="M6426 798 c3 -5 10 -6 15 -3 13 9 11 12 -6 12 -8 0 -12 -4 -9 -9z"/>
<path d="M3730 780 c0 -5 5 -10 11 -10 5 0 7 5 4 10 -3 6 -8 10 -11 10 -2 0
-4 -4 -4 -10z"/>
<path d="M6535 780 c-3 -5 -1 -10 4 -10 6 0 11 5 11 10 0 6 -2 10 -4 10 -3 0
-8 -4 -11 -10z"/>
<path d="M3840 740 c-12 -7 -10 -9 7 -7 12 0 19 5 17 9 -6 10 -6 10 -24 -2z"/>
<path d="M6255 740 c3 -5 8 -10 11 -10 2 0 4 5 4 10 0 6 -5 10 -11 10 -5 0 -7
-4 -4 -10z"/>
<path d="M6370 740 c0 -5 5 -10 11 -10 5 0 7 5 4 10 -3 6 -8 10 -11 10 -2 0
-4 -4 -4 -10z"/>
<path d="M6453 735 c0 -8 4 -12 9 -9 5 3 6 10 3 15 -9 13 -12 11 -12 -6z"/>
<path d="M6106 722 c-2 -4 4 -8 14 -8 10 0 16 4 14 8 -3 4 -9 8 -14 8 -5 0
-11 -4 -14 -8z"/>
<path d="M6030 710 c-9 -6 -10 -10 -3 -10 6 0 15 5 18 10 8 12 4 12 -15 0z"/>
<path d="M3875 699 c-3 -4 2 -6 10 -5 21 3 28 13 10 13 -9 0 -18 -4 -20 -8z"/>
<path d="M4050 700 c0 -5 5 -10 11 -10 5 0 7 5 4 10 -3 6 -8 10 -11 10 -2 0
-4 -4 -4 -10z"/>
<path d="M4115 689 c-4 -6 -5 -12 -2 -15 2 -3 7 2 10 11 7 17 1 20 -8 4z"/>
<path d="M6156 687 c3 -10 9 -15 12 -12 3 3 0 11 -7 18 -10 9 -11 8 -5 -6z"/>
<path d="M4267 679 c7 -7 15 -10 18 -7 3 3 -2 9 -12 12 -14 6 -15 5 -6 -5z"/>
<path d="M5907 679 c7 -7 15 -10 18 -7 3 3 -2 9 -12 12 -14 6 -15 5 -6 -5z"/>
<path d="M4056 662 c-3 -5 1 -9 9 -9 8 0 12 4 9 9 -3 4 -7 8 -9 8 -2 0 -6 -4
-9 -8z"/>
<path d="M5967 639 c7 -7 15 -10 18 -7 3 3 -2 9 -12 12 -14 6 -15 5 -6 -5z"/>
<path d="M6210 646 c0 -2 7 -7 16 -10 8 -3 12 -2 9 4 -6 10 -25 14 -25 6z"/>
<path d="M4295 631 c-3 -5 -2 -12 3 -15 5 -3 9 1 9 9 0 17 -3 19 -12 6z"/>
<path d="M4256 622 c-3 -5 1 -9 9 -9 8 0 12 4 9 9 -3 4 -7 8 -9 8 -2 0 -6 -4
-9 -8z"/>
<path d="M4450 619 c0 -5 5 -7 10 -4 6 3 10 8 10 11 0 2 -4 4 -10 4 -5 0 -10
-5 -10 -11z"/>
<path d="M5870 625 c0 -7 30 -13 34 -7 3 4 -4 9 -15 9 -10 1 -19 0 -19 -2z"/>
<path d="M4949 603 c-13 -16 -12 -17 4 -4 16 13 21 21 13 21 -2 0 -10 -8 -17
-17z"/>
<path d="M5055 609 c-4 -6 -5 -12 -2 -15 2 -3 7 2 10 11 7 17 1 20 -8 4z"/>
<path d="M5256 607 c3 -10 9 -15 12 -12 3 3 0 11 -7 18 -10 9 -11 8 -5 -6z"/>
<path d="M5353 605 c0 -8 4 -12 9 -9 5 3 6 10 3 15 -9 13 -12 11 -12 -6z"/>
<path d="M4573 591 c0 -11 5 -18 9 -15 4 3 5 11 1 19 -7 21 -12 19 -10 -4z"/>
<path d="M4617 595 c-4 -8 -3 -16 1 -19 4 -3 9 4 9 15 2 23 -3 25 -10 4z"/>
<path d="M5779 608 c-5 -18 -6 -38 -1 -34 7 8 12 36 6 36 -2 0 -4 -1 -5 -2z"/>
<path d="M4735 580 c3 -5 8 -10 11 -10 2 0 4 5 4 10 0 6 -5 10 -11 10 -5 0 -7
-4 -4 -10z"/>
<path d="M4775 580 c-3 -5 -1 -10 4 -10 6 0 11 5 11 10 0 6 -2 10 -4 10 -3 0
-8 -4 -11 -10z"/>
<path d="M4975 580 c3 -5 8 -10 11 -10 2 0 4 5 4 10 0 6 -5 10 -11 10 -5 0 -7
-4 -4 -10z"/>
<path d="M5010 580 c0 -5 5 -10 11 -10 5 0 7 5 4 10 -3 6 -8 10 -11 10 -2 0
-4 -4 -4 -10z"/>
<path d="M5130 579 c0 -5 5 -7 10 -4 6 3 10 8 10 11 0 2 -4 4 -10 4 -5 0 -10
-5 -10 -11z"/>
<path d="M5415 580 c-3 -5 -1 -10 4 -10 6 0 11 5 11 10 0 6 -2 10 -4 10 -3 0
-8 -4 -11 -10z"/>
<path d="M5736 582 c-3 -5 1 -9 9 -9 8 0 12 4 9 9 -3 4 -7 8 -9 8 -2 0 -6 -4
-9 -8z"/>
<path d="M5186 562 c-3 -5 1 -9 9 -9 8 0 12 4 9 9 -3 4 -7 8 -9 8 -2 0 -6 -4
-9 -8z"/>
<path d="M5013 545 c0 -8 4 -12 9 -9 5 3 6 10 3 15 -9 13 -12 11 -12 -6z"/>
<path d="M4816 542 c-2 -4 -1 -14 4 -22 7 -11 9 -9 7 8 -1 24 -3 26 -11 14z"/>
<path d="M4910 545 c0 -7 30 -13 34 -7 3 4 -4 9 -15 9 -10 1 -19 0 -19 -2z"/>
<path d="M5093 529 c-2 -23 3 -25 10 -4 4 8 3 16 -1 19 -4 3 -9 -4 -9 -15z"/>
<path d="M5314 542 c4 -3 14 -7 22 -8 9 -1 13 0 10 4 -4 3 -14 7 -22 8 -9 1
-13 0 -10 -4z"/>
</g>
</svg>
